<?xml version="1.0" encoding="utf-8"?>
<!-- Generator: Adobe Illustrator 16.0.0, SVG Export Plug-In . SVG Version: 6.00 Build 0)  -->
<!DOCTYPE svg PUBLIC "-//W3C//DTD SVG 1.0//EN" "http://www.w3.org/TR/2001/REC-SVG-20010904/DTD/svg10.dtd">
<svg version="1.0" id="Layer_1" xmlns="http://www.w3.org/2000/svg" xmlns:xlink="http://www.w3.org/1999/xlink" x="0px" y="0px"
	 width="56.461px" height="55.693px" viewBox="0 0 56.461 55.693" enable-background="new 0 0 56.461 55.693" xml:space="preserve">
<path fill="#FFFFFF" d="M53.311,1.573v47.769c0,2.64-2.143,4.778-4.778,4.778H7.927c-2.638,0-4.776-2.141-4.776-4.778V1.573H53.311z
	 M19.289,9.299c-5.393,3.089-9.034,8.895-9.055,15.546h11.553c0.041-2.38,1.369-4.445,3.316-5.536L19.289,9.299z M37.291,9.4
	l-5.784,9.956c1.899,1.104,3.188,3.144,3.229,5.488h11.437C46.15,18.264,42.586,12.514,37.291,9.4z M28.203,21.75
	c-1.805,0-3.268,1.464-3.268,3.269c0,1.804,1.463,3.267,3.268,3.267c1.803,0,3.268-1.463,3.268-3.267
	C31.471,23.214,30.005,21.75,28.203,21.75z M31.605,30.506c-0.978,0.591-2.119,0.933-3.344,0.933c-1.166,0-2.263-0.312-3.209-0.854
	l-5.763,9.921c2.626,1.507,5.67,2.366,8.912,2.366c3.335,0,6.46-0.912,9.138-2.496L31.605,30.506z"/>
</svg>
