<?xml version="1.0" encoding="utf-8"?>
<!-- Generator: Adobe Illustrator 16.0.0, SVG Export Plug-In . SVG Version: 6.00 Build 0)  -->
<!DOCTYPE svg PUBLIC "-//W3C//DTD SVG 1.0//EN" "http://www.w3.org/TR/2001/REC-SVG-20010904/DTD/svg10.dtd">
<svg version="1.0" id="Layer_1" xmlns="http://www.w3.org/2000/svg" xmlns:xlink="http://www.w3.org/1999/xlink" x="0px" y="0px"
	 width="29.129px" height="23.854px" viewBox="0 0 29.129 23.854" enable-background="new 0 0 29.129 23.854" xml:space="preserve">
<g>
	<g>
		<path fill="#E6E6E6" d="M19.695,3.809v0.376c-0.004,0-0.006-0.001-0.01-0.001c-0.428,0-0.773,0.26-0.773,0.58v1.16
			c0,0.321,0.347,0.581,0.773,0.581c0.004,0,0.006-0.001,0.01-0.001v0.241c1.752,1.394,2.881,3.54,2.881,5.953
			c0,4.2-3.404,7.604-7.604,7.604c-4.2,0-7.604-3.404-7.604-7.604c0-2.473,1.185-4.663,3.013-6.052V6.502
			c0.006,0,0.011,0.003,0.018,0.003c0.428,0,0.774-0.26,0.774-0.581v-1.16c0-0.32-0.347-0.58-0.774-0.58
			c-0.006,0-0.011,0.002-0.018,0.003V3.745c-3.25,1.67-5.477,5.048-5.477,8.953c0,5.562,4.508,10.069,10.068,10.069
			S25.04,18.259,25.04,12.698C25.04,8.845,22.874,5.501,19.695,3.809z M15.042,12.698c0.854,0,1.548-0.693,1.548-1.548V2.635
			c0-0.855-0.691-1.549-1.548-1.549c-0.854,0-1.548,0.693-1.548,1.549v8.515C13.494,12.005,14.188,12.698,15.042,12.698z"/>
	</g>
</g>
</svg>
