<?xml version="1.0" encoding="utf-8"?>
<!-- Generator: Adobe Illustrator 16.0.0, SVG Export Plug-In . SVG Version: 6.00 Build 0)  -->
<!DOCTYPE svg PUBLIC "-//W3C//DTD SVG 1.0//EN" "http://www.w3.org/TR/2001/REC-SVG-20010904/DTD/svg10.dtd">
<svg version="1.0" id="Layer_1" xmlns="http://www.w3.org/2000/svg" xmlns:xlink="http://www.w3.org/1999/xlink" x="0px" y="0px"
	 width="29.129px" height="23.854px" viewBox="0 0 29.129 23.854" enable-background="new 0 0 29.129 23.854" xml:space="preserve">
<g>
	<g>
		<path fill="#D9DF20" d="M27.898,16.095c0-2.683-1.935-4.854-4.355-4.976c0.116-0.521,0.184-1.062,0.184-1.621
			c0-3.84-2.889-6.952-6.451-6.952c-2.154,0-4.061,1.145-5.229,2.896c-0.588-0.414-1.288-0.658-2.043-0.658
			c-2.071,0-3.751,1.811-3.751,4.042c0,0.149,0.026,0.292,0.041,0.438C3.466,9.462,1.23,12.026,1.23,15.168
			c0,3.271,2.422,5.927,5.411,5.927c0.083,0,0.163-0.011,0.244-0.015l0.001,0.017h5.428v-4.495H8.558L15.127,9.1l6.568,7.501h-3.381
			v4.495h5.371l-0.002-0.041C26.039,20.857,27.898,18.725,27.898,16.095z"/>
	</g>
</g>
</svg>
