<?xml version="1.0" encoding="utf-8"?>
<!-- Generator: Adobe Illustrator 16.0.0, SVG Export Plug-In . SVG Version: 6.00 Build 0)  -->
<!DOCTYPE svg PUBLIC "-//W3C//DTD SVG 1.0//EN" "http://www.w3.org/TR/2001/REC-SVG-20010904/DTD/svg10.dtd">
<svg version="1.0" id="Layer_1" xmlns="http://www.w3.org/2000/svg" xmlns:xlink="http://www.w3.org/1999/xlink" x="0px" y="0px"
	 width="29.129px" height="23.853px" viewBox="0 0 29.129 23.853" enable-background="new 0 0 29.129 23.853" xml:space="preserve">
<path fill-rule="evenodd" clip-rule="evenodd" fill="#D9DF20" d="M17.142,12.91c0.409-0.402,0.55-1.417,0.926-1.784
	c0.53-0.519,1.107-1.158,1.271-1.954c0.218-1.06-0.227-1.195-0.227-1.561c0-0.767-0.006-2.028-0.245-2.846
	c-0.014-1.079-0.19-1.549-0.563-1.953c-0.349-0.378-1.212-0.289-1.66-0.538c-0.695-0.386-1.269-0.533-1.998-0.552V1.72
	c-0.021,0-0.042,0.002-0.063,0.002c-0.035,0-0.07-0.002-0.106-0.002l0.001,0.006c-1.778,0.067-3.669,1.188-4.319,2.992
	c-0.242,0.668-0.149,2.127-0.149,2.895c0,0.366-0.444,0.5-0.226,1.561c0.163,0.796,0.739,1.435,1.271,1.954
	c0.375,0.366,0.517,1.382,0.925,1.784c0.09,0.591,0.1,0.423,0.097,0.964c-0.002,0.183,0.004,0.466-0.287,0.745
	c-0.553,0.53-1.822,1.679-2.863,2.125c-1.374,0.589-3.605,1.532-4.12,1.796c-0.514,0.267-1.873,0.985-1.873,1.443
	c0,0.459,0,2.148,0,2.148h11.501h0.263h11.501c0,0,0-1.689,0-2.148c0-0.458-1.358-1.177-1.873-1.443
	c-0.515-0.265-2.746-1.207-4.12-1.796c-1.013-0.435-2.242-1.536-2.816-2.082c-0.194-0.183-0.332-0.377-0.334-0.844
	c-0.002-0.544,0.011-0.337,0.098-0.909"/>
</svg>
