<?xml version="1.0" encoding="utf-8"?>
<!-- Generator: Adobe Illustrator 16.0.0, SVG Export Plug-In . SVG Version: 6.00 Build 0)  -->
<!DOCTYPE svg PUBLIC "-//W3C//DTD SVG 1.0//EN" "http://www.w3.org/TR/2001/REC-SVG-20010904/DTD/svg10.dtd">
<svg version="1.0" id="Layer_1" xmlns="http://www.w3.org/2000/svg" xmlns:xlink="http://www.w3.org/1999/xlink" x="0px" y="0px"
	 width="29.129px" height="16.973px" viewBox="0 0 29.129 16.973" enable-background="new 0 0 29.129 16.973" xml:space="preserve">
<g>
	<g>
		<path fill="#E6E6E6" d="M14.564,1.357C4.552,1.357,1.45,8.486,1.45,8.486s3.102,7.129,13.114,7.129
			c10.012,0,13.114-7.129,13.114-7.129S24.577,1.357,14.564,1.357z M14.527,14.167c-3.109,0-5.63-2.521-5.63-5.63
			c0-3.108,2.521-5.63,5.63-5.63c3.11,0,5.63,2.521,5.63,5.63C20.157,11.646,17.637,14.167,14.527,14.167z M14.527,5.803
			c-1.511,0-2.734,1.225-2.734,2.733s1.224,2.734,2.734,2.734c1.51,0,2.733-1.226,2.733-2.734S16.037,5.803,14.527,5.803z"/>
	</g>
</g>
</svg>
